<svg width="127" height="33" viewBox="0 0 127 33" fill="none" xmlns="http://www.w3.org/2000/svg">
<path d="M24.5796 14.6974C24.5796 20.0098 16.7029 24.3097 16.3675 24.4873C16.2791 24.5349 16.1802 24.5598 16.0799 24.5598C15.9795 24.5598 15.8806 24.5349 15.7922 24.4873C15.4568 24.3097 7.58008 20.0098 7.58008 14.6974C7.58148 13.4499 8.07766 12.254 8.95976 11.3719C9.84186 10.4898 11.0378 9.99359 12.2853 9.99219C13.8525 9.99219 15.2246 10.6661 16.0799 11.8052C16.9351 10.6661 18.3072 9.99219 19.8744 9.99219C21.1219 9.99359 22.3178 10.4898 23.1999 11.3719C24.082 12.254 24.5782 13.4499 24.5796 14.6974Z" fill="black" fill-opacity="0.03"/>
<path fill-rule="evenodd" clip-rule="evenodd" d="M13.4409 2.88005C13.4409 4.29376 14.587 5.43979 16.0007 5.43979C17.4144 5.43979 18.5604 4.29376 18.5604 2.88005C18.5604 1.46635 17.4144 0.320312 16.0007 0.320312C14.587 0.320312 13.4409 1.46635 13.4409 2.88005ZM4.60609 3.88031C4.60609 4.43333 4.15778 4.88164 3.60476 4.88164C3.05174 4.88164 2.60343 4.43333 2.60343 3.88031C2.60343 3.32729 3.05174 2.87897 3.60476 2.87897C4.15778 2.87897 4.60609 3.32729 4.60609 3.88031ZM16.6154 6.49818C16.6154 6.83804 16.3399 7.11355 16 7.11355C15.6602 7.11355 15.3846 6.83804 15.3846 6.49818C15.3846 6.15832 15.6602 5.88281 16 5.88281C16.3399 5.88281 16.6154 6.15832 16.6154 6.49818ZM17.2492 25.82C17.2492 26.5101 16.6897 27.0696 15.9995 27.0696C15.3094 27.0696 14.7499 26.5101 14.7499 25.82C14.7499 25.1298 15.3094 24.5703 15.9995 24.5703C16.6897 24.5703 17.2492 25.1298 17.2492 25.82ZM16.0794 32.3192C17.2699 32.3192 18.2351 31.354 18.2351 30.1635C18.2351 28.9729 17.2699 28.0078 16.0794 28.0078C14.8888 28.0078 13.9237 28.9729 13.9237 30.1635C13.9237 31.354 14.8888 32.3192 16.0794 32.3192ZM3.60472 29.5339C4.15774 29.5339 4.60606 29.0856 4.60606 28.5326C4.60606 27.9796 4.15774 27.5312 3.60472 27.5312C3.0517 27.5312 2.60339 27.9796 2.60339 28.5326C2.60339 29.0856 3.0517 29.5339 3.60472 29.5339ZM8.89 10.6807C8.40647 10.6807 8.0145 10.2887 8.0145 9.80519C8.0145 9.32166 8.40647 8.92969 8.89 8.92969C9.37353 8.92969 9.7655 9.32166 9.7655 9.80519C9.7655 10.2887 9.37353 10.6807 8.89 10.6807ZM9.43674 2.04823C9.43674 3.00254 10.2104 3.77616 11.1647 3.77616C12.119 3.77616 12.8926 3.00254 12.8926 2.04823C12.8926 1.09393 12.119 0.320312 11.1647 0.320312C10.2104 0.320312 9.43674 1.09393 9.43674 2.04823ZM11.6577 9.68832C10.2454 9.68832 9.10062 8.54349 9.10062 7.13127C9.10062 5.71905 10.2454 4.57422 11.6577 4.57422C13.0699 4.57422 14.2147 5.71905 14.2147 7.13127C14.2147 8.54349 13.0699 9.68832 11.6577 9.68832ZM9.75322 21.5364C9.75322 21.9147 10.0598 22.2213 10.4381 22.2213C10.8163 22.2213 11.1229 21.9147 11.1229 21.5364C11.1229 21.1582 10.8163 20.8516 10.4381 20.8516C10.0598 20.8516 9.75322 21.1582 9.75322 21.5364ZM11.5609 27.632C10.0865 27.632 8.89136 26.4368 8.89136 24.9625C8.89136 23.4881 10.0865 22.293 11.5609 22.293C13.0352 22.293 14.2303 23.4881 14.2303 24.9625C14.2303 26.4368 13.0352 27.632 11.5609 27.632ZM9.01363 30.1718C9.01363 31.3584 9.9755 32.3202 11.162 32.3202C12.3486 32.3202 13.3104 31.3584 13.3104 30.1718C13.3104 28.9853 12.3486 28.0234 11.162 28.0234C9.9755 28.0234 9.01363 28.9853 9.01363 30.1718ZM7.02863 4.57922C6.00142 4.57922 5.16871 3.7465 5.16871 2.7193C5.16871 1.69209 6.00142 0.859375 7.02863 0.859375C8.05583 0.859375 8.88855 1.69209 8.88855 2.7193C8.88855 3.7465 8.05583 4.57922 7.02863 4.57922ZM4.63692 6.85433C4.63692 7.87629 5.46538 8.70476 6.48734 8.70476C7.5093 8.70476 8.33777 7.87629 8.33777 6.85433C8.33777 5.83237 7.5093 5.00391 6.48734 5.00391C5.46538 5.00391 4.63692 5.83237 4.63692 6.85433ZM6.29931 13.0996C5.31063 13.0996 4.50915 12.2982 4.50915 11.3095C4.50915 10.3208 5.31063 9.51931 6.29931 9.51931C7.288 9.51931 8.08948 10.3208 8.08948 11.3095C8.08948 12.2982 7.288 13.0996 6.29931 13.0996ZM3.49335 15.7298C3.49335 16.8146 4.37275 17.694 5.45755 17.694C6.54235 17.694 7.42175 16.8146 7.42175 15.7298C7.42175 14.645 6.54235 13.7656 5.45755 13.7656C4.37275 13.7656 3.49335 14.645 3.49335 15.7298ZM7.13284 22.945C5.78242 22.945 4.68768 21.8503 4.68768 20.4998C4.68768 19.1494 5.78242 18.0547 7.13284 18.0547C8.48327 18.0547 9.578 19.1494 9.578 20.4998C9.578 21.8503 8.48327 22.945 7.13284 22.945ZM4.50805 25.6317C4.50805 26.6666 5.347 27.5055 6.38189 27.5055C7.41679 27.5055 8.25574 26.6666 8.25574 25.6317C8.25574 24.5968 7.41679 23.7578 6.38189 23.7578C5.347 23.7578 4.50805 24.5968 4.50805 25.6317ZM6.77862 31.8878C5.79348 31.8878 4.99487 31.0892 4.99487 30.1041C4.99487 29.1189 5.79348 28.3203 6.77862 28.3203C7.76376 28.3203 8.56238 29.1189 8.56238 30.1041C8.56238 31.0892 7.76376 31.8878 6.77862 31.8878ZM0.376096 7.1322C0.376096 8.09836 1.15933 8.88159 2.12549 8.88159C3.09165 8.88159 3.87488 8.09836 3.87488 7.1322C3.87488 6.16604 3.09165 5.38281 2.12549 5.38281C1.15933 5.38281 0.376096 6.16604 0.376096 7.1322ZM1.93761 13.5698C0.86769 13.5698 0.000346899 12.7025 0.000346899 11.6326C0.000346899 10.5627 0.86769 9.69531 1.93761 9.69531C3.00753 9.69531 3.87488 10.5627 3.87488 11.6326C3.87488 12.7025 3.00753 13.5698 1.93761 13.5698ZM0.00104713 16.3236C0.00104713 17.1021 0.632134 17.7332 1.41062 17.7332C2.1891 17.7332 2.82019 17.1021 2.82019 16.3236C2.82019 15.5451 2.1891 14.9141 1.41062 14.9141C0.632134 14.9141 0.00104713 15.5451 0.00104713 16.3236ZM2.08002 22.9452C0.931255 22.9452 0 22.0139 0 20.8652C0 19.7164 0.931255 18.7852 2.08002 18.7852C3.22878 18.7852 4.16003 19.7164 4.16003 20.8652C4.16003 22.0139 3.22878 22.9452 2.08002 22.9452ZM0.46998 25.4603C0.46998 26.4005 1.23219 27.1627 2.17243 27.1627C3.11266 27.1627 3.87488 26.4005 3.87488 25.4603C3.87488 24.52 3.11266 23.7578 2.17243 23.7578C1.23219 23.7578 0.46998 24.52 0.46998 25.4603ZM15.9999 10.8906C16.9211 10.8906 17.6678 10.1438 17.6678 9.22265C17.6678 8.30146 16.9211 7.55469 15.9999 7.55469C15.0787 7.55469 14.3319 8.30146 14.3319 9.22265C14.3319 10.1438 15.0787 10.8906 15.9999 10.8906ZM27.3937 3.88024C27.3937 4.43326 27.842 4.88157 28.395 4.88157C28.9481 4.88157 29.3964 4.43326 29.3964 3.88024C29.3964 3.32722 28.9481 2.87891 28.395 2.87891C27.842 2.87891 27.3937 3.32722 27.3937 3.88024ZM28.395 29.5339C27.842 29.5339 27.3937 29.0856 27.3937 28.5326C27.3937 27.9796 27.842 27.5312 28.395 27.5312C28.9481 27.5312 29.3964 27.9796 29.3964 28.5326C29.3964 29.0856 28.9481 29.5339 28.395 29.5339ZM23.9853 9.80519C23.9853 10.2887 23.5933 10.6807 23.1098 10.6807C22.6262 10.6807 22.2343 10.2887 22.2343 9.80519C22.2343 9.32166 22.6262 8.92969 23.1098 8.92969C23.5933 8.92969 23.9853 9.32166 23.9853 9.80519ZM20.8352 3.77616C21.7895 3.77616 22.5631 3.00254 22.5631 2.04823C22.5631 1.09393 21.7895 0.320312 20.8352 0.320312C19.8809 0.320312 19.1073 1.09393 19.1073 2.04823C19.1073 3.00254 19.8809 3.77616 20.8352 3.77616ZM22.8972 7.13127C22.8972 8.54349 21.7524 9.68832 20.3401 9.68832C18.9279 9.68832 17.7831 8.54349 17.7831 7.13127C17.7831 5.71905 18.9279 4.57422 20.3401 4.57422C21.7524 4.57422 22.8972 5.71905 22.8972 7.13127ZM21.5617 22.2213C21.9399 22.2213 22.2465 21.9147 22.2465 21.5364C22.2465 21.1582 21.9399 20.8516 21.5617 20.8516C21.1834 20.8516 20.8768 21.1582 20.8768 21.5364C20.8768 21.9147 21.1834 22.2213 21.5617 22.2213ZM23.1084 24.9625C23.1084 26.4368 21.9132 27.632 20.4389 27.632C18.9646 27.632 17.7694 26.4368 17.7694 24.9625C17.7694 23.4881 18.9646 22.293 20.4389 22.293C21.9132 22.293 23.1084 23.4881 23.1084 24.9625ZM20.8358 32.3202C22.0223 32.3202 22.9842 31.3584 22.9842 30.1718C22.9842 28.9853 22.0223 28.0234 20.8358 28.0234C19.6492 28.0234 18.6874 28.9853 18.6874 30.1718C18.6874 31.3584 19.6492 32.3202 20.8358 32.3202ZM26.8291 2.7193C26.8291 3.7465 25.9964 4.57922 24.9692 4.57922C23.942 4.57922 23.1093 3.7465 23.1093 2.7193C23.1093 1.69209 23.942 0.859375 24.9692 0.859375C25.9964 0.859375 26.8291 1.69209 26.8291 2.7193ZM25.5124 8.70476C26.5344 8.70476 27.3628 7.87629 27.3628 6.85433C27.3628 5.83237 26.5344 5.00391 25.5124 5.00391C24.4904 5.00391 23.662 5.83237 23.662 6.85433C23.662 7.87629 24.4904 8.70476 25.5124 8.70476ZM27.4904 11.3097C27.4904 12.2984 26.6889 13.0999 25.7002 13.0999C24.7115 13.0999 23.91 12.2984 23.91 11.3097C23.91 10.321 24.7115 9.51953 25.7002 9.51953C26.6889 9.51953 27.4904 10.321 27.4904 11.3097ZM26.5442 17.694C27.629 17.694 28.5084 16.8146 28.5084 15.7298C28.5084 14.645 27.629 13.7656 26.5442 13.7656C25.4594 13.7656 24.58 14.645 24.58 15.7298C24.58 16.8146 25.4594 17.694 26.5442 17.694ZM27.3122 20.4998C27.3122 21.8502 26.2174 22.9449 24.867 22.9449C23.5166 22.9449 22.4218 21.8502 22.4218 20.4998C22.4218 19.1493 23.5166 18.0546 24.867 18.0546C26.2174 18.0546 27.3122 19.1493 27.3122 20.4998ZM25.6159 27.5055C26.6508 27.5055 27.4897 26.6666 27.4897 25.6317C27.4897 24.5968 26.6508 23.7578 25.6159 23.7578C24.581 23.7578 23.7421 24.5968 23.7421 25.6317C23.7421 26.6666 24.581 27.5055 25.6159 27.5055ZM27.0049 30.1041C27.0049 31.0892 26.2063 31.8878 25.2211 31.8878C24.236 31.8878 23.4374 31.0892 23.4374 30.1041C23.4374 29.1189 24.236 28.3203 25.2211 28.3203C26.2063 28.3203 27.0049 29.1189 27.0049 30.1041ZM29.8762 8.88159C30.8424 8.88159 31.6256 8.09836 31.6256 7.1322C31.6256 6.16604 30.8424 5.38281 29.8762 5.38281C28.9101 5.38281 28.1268 6.16604 28.1268 7.1322C28.1268 8.09836 28.9101 8.88159 29.8762 8.88159ZM32.0014 11.6326C32.0014 12.7025 31.134 13.5698 30.0641 13.5698C28.9942 13.5698 28.1268 12.7025 28.1268 11.6326C28.1268 10.5627 28.9942 9.69531 30.0641 9.69531C31.134 9.69531 32.0014 10.5627 32.0014 11.6326ZM30.5911 17.7332C31.3696 17.7332 32.0007 17.1021 32.0007 16.3236C32.0007 15.5451 31.3696 14.9141 30.5911 14.9141C29.8126 14.9141 29.1815 15.5451 29.1815 16.3236C29.1815 17.1021 29.8126 17.7332 30.5911 17.7332ZM31.9998 20.8652C31.9998 22.0139 31.0685 22.9452 29.9197 22.9452C28.771 22.9452 27.8397 22.0139 27.8397 20.8652C27.8397 19.7164 28.771 18.7852 29.9197 18.7852C31.0685 18.7852 31.9998 19.7164 31.9998 20.8652ZM29.8293 27.1627C30.7695 27.1627 31.5317 26.4005 31.5317 25.4603C31.5317 24.52 30.7695 23.7578 29.8293 23.7578C28.889 23.7578 28.1268 24.52 28.1268 25.4603C28.1268 26.4005 28.889 27.1627 29.8293 27.1627Z" fill="url(#paint0_radial_585_6088)"/>
<path d="M20.0492 15.5179C20.0492 17.9991 16.3703 20.0075 16.2136 20.0904C16.1723 20.1126 16.1262 20.1243 16.0793 20.1243C16.0324 20.1243 15.9862 20.1126 15.9449 20.0904C15.7883 20.0075 12.1094 17.9991 12.1094 15.5179C12.11 14.9353 12.3418 14.3767 12.7538 13.9647C13.1658 13.5527 13.7244 13.321 14.307 13.3203C15.039 13.3203 15.6798 13.6351 16.0793 14.1671C16.4788 13.6351 17.1196 13.3203 17.8516 13.3203C18.4342 13.321 18.9928 13.5527 19.4048 13.9647C19.8168 14.3767 20.0485 14.9353 20.0492 15.5179Z" fill="#580177"/>
<path d="M124.498 24.9922V7.76562H126.972V24.9922H124.498Z" fill="#A68AB3"/>
<path d="M107.375 24.9922V24.8597L112.985 7.76562H116.96L122.57 24.8597V24.9922H119.986L115.149 9.68705H114.619L109.782 24.9922H107.375ZM111.019 19.9788L111.704 17.9028H118.064L118.749 19.9788H111.019Z" fill="#A68AB3"/>
<path d="M95.9522 25.32C93.8615 25.32 92.264 24.6943 91.1597 23.4428C90.0702 22.1913 89.5254 20.4907 89.5254 18.3411C89.5254 16.8981 89.7683 15.6614 90.2542 14.6307C90.7548 13.6001 91.4763 12.805 92.4186 12.2455C93.3756 11.686 94.5388 11.4062 95.9081 11.4062C97.881 11.4062 99.3902 12.0026 100.436 13.1952C101.496 14.3878 102.026 16.1399 102.026 18.4515V19.2024H93.0149C93.0885 20.3214 93.3756 21.2048 93.8762 21.8526C94.3915 22.4857 95.0835 22.8023 95.9522 22.8023C96.6442 22.8023 97.1964 22.5962 97.6086 22.1839C98.0356 21.7717 98.3154 21.2931 98.4479 20.7484H101.849C101.717 21.5582 101.422 22.3091 100.966 23.0011C100.509 23.6931 99.8687 24.2526 99.0442 24.6796C98.2197 25.1065 97.189 25.32 95.9522 25.32ZM93.0149 16.9497H98.5362C98.4773 15.9485 98.227 15.1755 97.7853 14.6307C97.3436 14.0712 96.7105 13.7915 95.886 13.7915C95.0762 13.7915 94.421 14.0565 93.9204 14.5865C93.4345 15.1019 93.1327 15.8896 93.0149 16.9497Z" fill="#2E0052"/>
<path d="M83.2686 25.32C81.7963 25.32 80.6184 25.0918 79.735 24.6354C78.8663 24.1642 78.2258 23.5753 77.8136 22.8686C77.416 22.1618 77.1878 21.4551 77.1289 20.7484H80.5301C80.6037 21.1312 80.7583 21.4845 80.9938 21.8085C81.2441 22.1177 81.5681 22.3606 81.9656 22.5373C82.3779 22.714 82.8711 22.8023 83.4453 22.8023C84.1521 22.8023 84.66 22.6845 84.9692 22.4489C85.2784 22.1986 85.433 21.8821 85.433 21.4993C85.433 21.1459 85.2858 20.8514 84.9913 20.6158C84.7116 20.3655 84.2478 20.1373 83.5999 19.9312L82.0098 19.4012C81.2441 19.1361 80.5374 18.849 79.8896 18.5398C79.2417 18.2159 78.7191 17.8036 78.3215 17.303C77.9387 16.8024 77.7473 16.1546 77.7473 15.3595C77.7473 14.1816 78.1964 13.232 79.0945 12.5105C79.9926 11.7743 81.2662 11.4062 82.9153 11.4062C84.1079 11.4062 85.0796 11.5903 85.8305 11.9584C86.5962 12.3265 87.1704 12.8197 87.5532 13.4381C87.936 14.0418 88.1569 14.7117 88.2158 15.4479H84.9471C84.8735 14.9178 84.6527 14.5129 84.2846 14.2332C83.9165 13.9387 83.4159 13.7915 82.7828 13.7915C82.2085 13.7915 81.7742 13.9019 81.4797 14.1228C81.2 14.3436 81.0601 14.6454 81.0601 15.0282C81.0601 15.4111 81.2147 15.7276 81.5239 15.9779C81.8331 16.2282 82.3042 16.4564 82.9374 16.6626L84.5275 17.1705C85.2931 17.4061 85.9925 17.6859 86.6256 18.0098C87.2735 18.319 87.7888 18.7312 88.1716 19.2466C88.5544 19.7472 88.7458 20.4024 88.7458 21.2122C88.7458 22.4489 88.2747 23.4428 87.3323 24.1937C86.4048 24.9446 85.0502 25.32 83.2686 25.32Z" fill="#2E0052"/>
<path d="M72.9603 24.9886C72.5481 24.5175 72.2536 23.9874 72.0769 23.3985C71.915 22.7948 71.834 22.0071 71.834 21.0353V7.32031H75.4118V20.6599C75.4118 21.7789 75.537 22.6549 75.7873 23.288C76.0376 23.9064 76.3688 24.4291 76.7811 24.8561V24.9886H72.9603Z" fill="#2E0052"/>
<path d="M61.6409 25.3208C60.1686 25.3208 59.0569 24.857 58.306 23.9294C57.5551 23.0018 57.1797 21.743 57.1797 20.1528V11.7383H60.7575V19.5565C60.7575 20.4546 60.9195 21.154 61.2434 21.6546C61.5673 22.1552 62.09 22.4055 62.8115 22.4055C63.6801 22.4055 64.3501 22.0669 64.8212 21.3896C65.2924 20.7123 65.528 19.8804 65.528 18.8939V11.7383H69.1058V24.9895H65.8813V23.0018H65.3513C65.1304 23.6644 64.7255 24.2165 64.1366 24.6582C63.5476 25.0999 62.7158 25.3208 61.6409 25.3208Z" fill="#2E0052"/>
<path d="M42.002 24.9922V7.76562H49.2018C51.4103 7.76562 53.0226 8.23678 54.0385 9.17909C55.0544 10.1067 55.5624 11.3582 55.5624 12.9336C55.5624 14.509 55.0544 15.7679 54.0385 16.7102C53.0373 17.6525 51.425 18.1237 49.2018 18.1237H45.6681V24.9922H42.002ZM45.6681 15.3409H48.6496C49.6509 15.3409 50.4312 15.1716 50.9907 14.8329C51.5649 14.4796 51.852 13.8538 51.852 12.9557C51.852 12.0723 51.5649 11.4539 50.9907 11.1005C50.4312 10.7324 49.6509 10.5484 48.6496 10.5484H45.6681V15.3409Z" fill="#2E0052"/>
<defs>
<radialGradient id="paint0_radial_585_6088" cx="0" cy="0" r="1" gradientUnits="userSpaceOnUse" gradientTransform="translate(16.0007 16.3203) rotate(90) scale(16 16.0007)">
<stop stop-color="#773190"/>
<stop offset="0.505" stop-color="#B259D1"/>
<stop offset="1" stop-color="#580077"/>
</radialGradient>
</defs>
</svg>
